<?xml version="1.0" encoding="UTF-8" standalone="no"?>
<!DOCTYPE svg PUBLIC "-//W3C//DTD SVG 1.0//EN" "http://www.w3.org/TR/2001/PR-SVG-20010719/DTD/svg10.dtd">
<svg width="39cm" height="16cm" viewBox="-97 226 776 308" xmlns="http://www.w3.org/2000/svg" xmlns:xlink="http://www.w3.org/1999/xlink">
  <g>
    <ellipse style="fill: #99ccff" cx="295" cy="265.966" rx="156.474" ry="39.1185"/>
    <ellipse style="fill: none; fill-opacity:0; stroke-width: 1.4; stroke: #000000" cx="295" cy="265.966" rx="156.474" ry="39.1185"/>
    <text font-size="20.32" style="fill: #000000;text-anchor:middle;font-family:sans-serif;font-style:normal;font-weight:700" x="295" y="259.466">
      <tspan x="295" y="259.466">Weather</tspan>
      <tspan x="295" y="284.866">phenomenon</tspan>
    </text>
  </g>
  <g>
    <ellipse style="fill: #99ccff" cx="-7.49462" cy="500.97" rx="88.265" ry="22.0662"/>
    <ellipse style="fill: none; fill-opacity:0; stroke-width: 1.4; stroke: #000000" cx="-7.49462" cy="500.97" rx="88.265" ry="22.0662"/>
    <text font-size="20.32" style="fill: #000000;text-anchor:middle;font-family:sans-serif;font-style:normal;font-weight:700" x="-7.49462" y="507.17">
      <tspan x="-7.49462" y="507.17">Heat</tspan>
    </text>
  </g>
  <g>
    <ellipse style="fill: #99ccff" cx="578.338" cy="386.776" rx="100.226" ry="25.0564"/>
    <ellipse style="fill: none; fill-opacity:0; stroke-width: 1.4; stroke: #000000" cx="578.338" cy="386.776" rx="100.226" ry="25.0564"/>
    <text font-size="20.32" style="fill: #000000;text-anchor:middle;font-family:sans-serif;font-style:normal;font-weight:700" x="578.338" y="392.976">
      <tspan x="578.338" y="392.976">Humidity</tspan>
    </text>
  </g>
  <g>
    <ellipse style="fill: #99ccff" cx="293.845" cy="382.021" rx="113.726" ry="28.4315"/>
    <ellipse style="fill: none; fill-opacity:0; stroke-width: 1.4; stroke: #000000" cx="293.845" cy="382.021" rx="113.726" ry="28.4315"/>
    <text font-size="20.32" style="fill: #000000;text-anchor:middle;font-family:sans-serif;font-style:normal;font-weight:700" x="293.845" y="388.221">
      <tspan x="293.845" y="388.221">Temperature</tspan>
    </text>
  </g>
  <g>
    <line style="fill: none; fill-opacity:0; stroke-width: 1.4; stroke-dasharray: 20; stroke: #000000" x1="527.002" y1="364.888" x2="383.114" y2="303.537"/>
    <polygon style="fill: #000000" points="376.215,300.595 387.375,299.918 383.114,303.537 383.453,309.117 "/>
    <polygon style="fill: none; fill-opacity:0; stroke-width: 1.4; stroke: #000000" points="376.215,300.595 387.375,299.918 383.114,303.537 383.453,309.117 "/>
  </g>
  <g>
    <line style="fill: none; fill-opacity:0; stroke-width: 1.4; stroke-dasharray: 20; stroke: #000000" x1="40.3621" y1="482.08" x2="224.056" y2="409.569"/>
    <polygon style="fill: #000000" points="231.032,406.816 223.566,415.138 224.056,409.569 219.895,405.837 "/>
    <polygon style="fill: none; fill-opacity:0; stroke-width: 1.4; stroke: #000000" points="231.032,406.816 223.566,415.138 224.056,409.569 219.895,405.837 "/>
  </g>
  <g>
    <line style="fill: none; fill-opacity:0; stroke-width: 1.4; stroke-dasharray: 20; stroke: #000000" x1="294.135" y1="352.887" x2="294.513" y2="314.84"/>
    <polygon style="fill: #000000" points="294.588,307.341 299.488,317.39 294.513,314.84 289.489,317.29 "/>
    <polygon style="fill: none; fill-opacity:0; stroke-width: 1.4; stroke: #000000" points="294.588,307.341 299.488,317.39 294.513,314.84 289.489,317.29 "/>
  </g>
  <g>
    <ellipse style="fill: #99ccff" cx="293.924" cy="497.288" rx="141.425" ry="35.3564"/>
    <ellipse style="fill: none; fill-opacity:0; stroke-width: 1.4; stroke: #000000" cx="293.924" cy="497.288" rx="141.425" ry="35.3564"/>
    <text font-size="20.32" style="fill: #000000;text-anchor:middle;font-family:sans-serif;font-style:normal;font-weight:700" x="293.924" y="503.488">
      <tspan x="293.924" y="503.488">Room temperature</tspan>
    </text>
  </g>
  <g>
    <line style="fill: none; fill-opacity:0; stroke-width: 1.4; stroke-dasharray: 20; stroke: #000000" x1="293.899" y1="461.232" x2="293.871" y2="420.22"/>
    <polygon style="fill: #000000" points="293.866,412.72 298.873,422.717 293.871,420.22 288.873,422.723 "/>
    <polygon style="fill: none; fill-opacity:0; stroke-width: 1.4; stroke: #000000" points="293.866,412.72 298.873,422.717 293.871,420.22 288.873,422.723 "/>
  </g>
  <text font-size="27.0933" style="fill: #000000;text-anchor:start;font-family:sans-serif;font-style:normal;font-weight:700" x="416.564" y="456.748">
    <tspan x="416.564" y="456.748">...</tspan>
  </text>
  <text font-size="27.0933" style="fill: #000000;text-anchor:start;font-family:sans-serif;font-style:normal;font-weight:700" x="565.564" y="458.998">
    <tspan x="565.564" y="458.998">...</tspan>
  </text>
  <text font-size="27.0933" style="fill: #000000;text-anchor:start;font-family:sans-serif;font-style:normal;font-weight:700" x="161.865" y="341.698">
    <tspan x="161.865" y="341.698">...</tspan>
  </text>
</svg>
